<svg xmlns="http://www.w3.org/2000/svg" width="32" height="32" viewBox="0 0 32 32">
  <circle cx="16" cy="16" r="16" fill="#FFFFFF"/>
  <path d="M16,0C7.163,0,0,7.163,0,16s7.163,16,16,16s16-7.163,16-16S24.837,0,16,0z M16,30C8.268,30,2,23.732,2,16S8.268,2,16,2s14,6.268,14,14S23.732,30,16,30z" fill="#FFFFFF"/>
  <path d="M23.5,8.5c-4.418,0-8,3.582-8,8c0-4.418-3.582-8-8-8c4.418,0,8-3.582,8-8C15.5,4.918,19.082,8.5,23.5,8.5z" fill="#26B6A3"/>
  <path d="M7.5,23.5c4.418,0,8-3.582,8-8c0,4.418,3.582,8,8,8c-4.418,0-8,3.582-8,8C15.5,27.082,11.918,23.5,7.5,23.5z" fill="#2D4654"/>
</svg>
